<svg xmlns="http://www.w3.org/2000/svg" viewBox="0 0 1440 320"><path fill="#FFA274" fill-opacity="1" d="M0,64L21.8,106.7C43.6,149,87,235,131,229.3C174.5,224,218,128,262,106.7C305.5,85,349,139,393,176C436.4,213,480,235,524,202.7C567.3,171,611,85,655,80C698.2,75,742,149,785,186.7C829.1,224,873,224,916,229.3C960,235,1004,245,1047,234.7C1090.9,224,1135,192,1178,160C1221.8,128,1265,96,1309,96C1352.7,96,1396,128,1418,144L1440,160L1440,320L1418.2,320C1396.4,320,1353,320,1309,320C1265.5,320,1222,320,1178,320C1134.5,320,1091,320,1047,320C1003.6,320,960,320,916,320C872.7,320,829,320,785,320C741.8,320,698,320,655,320C610.9,320,567,320,524,320C480,320,436,320,393,320C349.1,320,305,320,262,320C218.2,320,175,320,131,320C87.3,320,44,320,22,320L0,320Z"></path></svg>